<?xml version="1.0" standalone="no"?><!DOCTYPE svg PUBLIC "-//W3C//DTD SVG 1.1//EN" "http://www.w3.org/Graphics/SVG/1.1/DTD/svg11.dtd"><svg t="1675308655820" class="icon" viewBox="0 0 1024 1024" version="1.1" xmlns="http://www.w3.org/2000/svg" p-id="5719" xmlns:xlink="http://www.w3.org/1999/xlink" width="200" height="200"><path d="M507.438545 464.058182a150.807273 150.807273 0 1 0-150.993454-150.714182 150.714182 150.714182 0 0 0 150.993454 150.714182z m0-249.390546a98.676364 98.676364 0 1 1-98.862545 98.676364 98.583273 98.583273 0 0 1 98.862545-98.676364z" fill="#231815" p-id="5720"></path><path d="M753.477818 274.432A76.055273 76.055273 0 1 1 687.010909 387.258182l-45.521454 25.413818a128.186182 128.186182 0 1 0 111.70909-191.115636 126.510545 126.510545 0 0 0-79.313454 27.461818l32.302545 40.866909a74.472727 74.472727 0 0 1 47.290182-15.453091zM263.726545 478.114909a128 128 0 0 0 111.709091-65.815273l-45.521454-25.320727a75.869091 75.869091 0 1 1-29.230546-103.330909 77.544727 77.544727 0 0 1 9.774546 6.516364l32.395636-40.773819a126.603636 126.603636 0 0 0-79.406545-27.089454 128.186182 128.186182 0 0 0-9.309091 256.186182h9.309091zM991.325091 830.184727L890.042182 524.660364h-170.356364V577.163636h132.654546l66.187636 201.262546h-176.872727l-69.445818-271.825455H354.583273l-65.163637 271.453091h-183.389091L177.431273 577.163636h133.213091v-52.130909H140.567273L32.674909 830.184727h244.922182L269.963636 861.463273h493.381819l-8.09891-31.278546z m-655.732364-20.852363L395.729455 558.545455h235.333818l65.163636 250.600727z" fill="#231815" p-id="5721"></path></svg>