<?xml version="1.0" standalone="no"?><!DOCTYPE svg PUBLIC "-//W3C//DTD SVG 1.1//EN" "http://www.w3.org/Graphics/SVG/1.1/DTD/svg11.dtd"><svg t="1675309199330" class="icon" viewBox="0 0 1024 1024" version="1.1" xmlns="http://www.w3.org/2000/svg" p-id="7637" xmlns:xlink="http://www.w3.org/1999/xlink" width="200" height="200"><path d="M1024.10837 510.5c-0.8-50.7-41.4-92.4-92.1-94.5-9.9-0.4-19.5 0.7-28.6 3.1-7 1.9-14.4-1.1-18.1-7.3l-97.8-166.7c-3.6-6.2-2.7-14 2.2-19.1 16.6-17.5 26.7-41.2 26.4-67.3-0.6-50.6-41.1-92.5-91.6-94.7-45.4-2-84.2 27.5-96.4 68.4-2 6.8-8.2 11.5-15.4 11.5H411.40837c-7.1 0-13.3-4.7-15.4-11.5-12.2-40.9-51-70.4-96.4-68.4-50.6 2.2-91 44.1-91.6 94.7-0.3 26.1 9.8 49.8 26.4 67.3 4.9 5.2 5.8 13 2.2 19.1l-97.8 166.7c-3.7 6.3-11.1 9.2-18.1 7.3-9.1-2.4-18.7-3.5-28.6-3.1-50.7 2-91.3 43.8-92.1 94.5C-0.69163 564.2 42.60837 608 96.10837 608c8.6 0 16.9-1.1 24.8-3.2 7-1.9 14.3 1.1 18 7.3l97.8 166.7c3.6 6.2 2.7 14-2.2 19.1-16.6 17.5-26.7 41.2-26.4 67.3 0.6 50.6 41.1 92.4 91.6 94.7 45.4 2 84.2-27.4 96.4-68.4 2-6.8 8.2-11.5 15.4-11.5h201.3c7.1 0 13.3 4.7 15.4 11.5 12.2 40.9 51 70.4 96.4 68.4 50.6-2.2 91-44.1 91.6-94.7 0.3-26.1-9.8-49.8-26.4-67.3-4.9-5.2-5.8-13-2.2-19.1l97.8-166.7c3.7-6.2 11-9.2 18-7.3 7.9 2.1 16.2 3.2 24.8 3.2 53.4 0 96.7-43.8 95.9-97.5zM383.00837 214.8s0.1-0.1 0.1-0.2c2.9-4.2 7.7-6.6 12.8-6.6h235.7c3.3 0 6.3 1.6 8.1 4.4l0.1 0.1c2 3.1 2.1 7.1 0.3 10.3l-70 121.3c-2.9 5-8.1 8-13.9 8h-95.3c-5.7 0-11-3-13.9-8l-64.8-112.3c-3.1-5.4-2.7-12 0.8-17zM183.50837 462.3l118.4-201.7c1.6-2.8 4.5-4.6 7.7-4.8 1.9-0.1 3.8-0.3 5.6-0.5 3.8-0.5 7.6 1.4 9.5 4.8l67.2 116.3c2.9 5 2.9 11.3-0.1 16.2L344.10837 472.2c-2.9 4.8-8.1 7.8-13.7 7.8h-137c-3.9 0-7.3-2.3-8.9-5.9-0.4-1-0.9-2-1.3-2.9-1.5-2.9-1.3-6.2 0.3-8.9z m144 301.9c-2 3.4-5.8 5.3-9.8 4.7-2.7-0.4-5.4-0.6-8.2-0.8-3.2-0.2-6.1-2-7.7-4.8L183.50837 561.7c-1.6-2.7-1.8-6.1-0.5-8.9 0.5-1 0.9-1.9 1.3-2.9 1.5-3.6 5-5.9 8.9-5.9h137c5.6 0 10.8 3 13.7 7.8l49.3 82.2c3 5 3 11.2 0.1 16.2l-65.8 114z m312.2 47.3c0 0.1-0.1 0.1 0 0-1.8 2.8-4.9 4.5-8.1 4.5H392.70837c-3.2 0-6.3-1.6-8-4.3-0.7-1.1-1.4-2.2-2.2-3.3-2.2-3.1-2.4-7.1-0.5-10.4L450.10837 680c2.9-5 8.1-8 13.9-8H556.10837c5.7 0 11 3 13.9 8L640.10837 801.4c1.7 3.2 1.6 7.1-0.4 10.1z m201-249.8L722.30837 763.4c-1.7 2.8-4.6 4.6-7.9 4.8-3.9 0.2-7.8 0.7-11.5 1.4-4 0.7-8.1-1.1-10.1-4.7l-64.1-111.1c-2.9-5-2.9-11.3 0.1-16.2l51.5-85.8c2.9-4.8 8.1-7.8 13.7-7.8h137c3.9 0 7.3 2.3 8.9 5.9 0.4 1 0.9 2 1.3 2.9 1.3 2.8 1.1 6.2-0.5 8.9z m0.5-90.5c-0.5 1-0.9 1.9-1.3 2.9-1.5 3.6-5 5.9-8.9 5.9h-137c-5.6 0-10.8-3-13.7-7.8l-51.4-85.7c-3-5-3.1-11.2-0.1-16.2l64.2-111.2c2.1-3.5 6.1-5.4 10.1-4.7 3.7 0.7 7.6 1.1 11.4 1.3 3.3 0.2 6.2 1.9 7.9 4.8l118.4 201.7c1.5 2.8 1.7 6.1 0.4 9z" p-id="7638"></path></svg>