<?xml version="1.0" standalone="no"?><!DOCTYPE svg PUBLIC "-//W3C//DTD SVG 1.1//EN" "http://www.w3.org/Graphics/SVG/1.1/DTD/svg11.dtd"><svg t="1675307236033" class="icon" viewBox="0 0 1052 1024" version="1.1" xmlns="http://www.w3.org/2000/svg" p-id="2752" xmlns:xlink="http://www.w3.org/1999/xlink" width="205.46875" height="200"><path d="M889.457778 689.635556l-25.941334 8.021333c0.739556 5.603556 1.649778 11.036444 1.649778 16.810667 0 5.688889-0.910222 11.150222-1.820444 16.668444l26.112 8.163556c6.144 1.706667 11.207111 5.888 14.193778 11.377777 2.958222 5.688889 3.612444 12.231111 1.507555 18.204445-4.152889 12.401778-17.92 19.086222-30.890667 15.246222l-26.396444-8.248889a124.586667 124.586667 0 0 1-20.252444 27.221333l16.071111 21.248c3.925333 4.977778 5.575111 11.377778 4.494222 17.635556a22.954667 22.954667 0 0 1-9.813333 15.160889 25.144889 25.144889 0 0 1-34.332445-5.205333l-16.071111-21.304889a131.185778 131.185778 0 0 1-33.251556 10.752v25.969777c0 12.942222-10.894222 23.523556-24.462222 23.523556-13.596444 0-24.632889-10.581333-24.632889-23.523556v-25.969777a129.536 129.536 0 0 1-33.137777-10.752l-16.156445 21.304889a25.088 25.088 0 0 1-34.247111 5.205333 22.897778 22.897778 0 0 1-9.813333-15.160889 22.641778 22.641778 0 0 1 4.408889-17.635556l16.156444-21.475555a128.853333 128.853333 0 0 1-20.878222-26.823111l-25.799111 8.078222c-12.999111 3.982222-26.737778-2.759111-30.862223-15.160889a23.04 23.04 0 0 1 15.644445-29.582222l25.856-8.049778c-0.625778-5.603556-1.564444-11.064889-1.564445-16.867555 0-5.688889 0.910222-11.207111 1.763556-16.725334l-26.112-7.992889c-12.885333-4.152889-19.797333-17.408-15.644444-29.724444 4.181333-12.344889 17.92-19.057778 30.890666-15.189333l26.282667 8.305777c5.688889-9.813333 12.231111-19.171556 20.366222-27.306666l-16.071111-21.304889a22.755556 22.755556 0 0 1 5.347556-32.796445 25.287111 25.287111 0 0 1 34.304 5.233778l16.099555 21.333333a137.358222 137.358222 0 0 1 33.336889-10.808888v-25.912889c0-12.942222 10.837333-23.523556 24.462222-23.523556 13.539556 0 24.576 10.496 24.576 23.523556v25.884444c11.662222 2.076444 22.670222 6.030222 33.109334 10.837333l16.213333-21.333333a25.116444 25.116444 0 0 1 34.190222-5.233778 22.840889 22.840889 0 0 1 5.518222 32.796445l-16.241777 21.504c8.049778 8.049778 15.36 16.896 20.878222 26.851555l25.799111-8.049777c12.970667-3.982222 26.737778 2.844444 30.862222 15.189333 4.266667 12.316444-2.844444 25.571556-15.701333 29.610667z m-159.232-57.514667c-47.388444 0-85.902222 36.949333-85.902222 82.346667 0 45.511111 38.513778 82.318222 85.902222 82.318222s85.902222-36.807111 85.902222-82.318222c0-45.397333-38.513778-82.346667-85.902222-82.346667z" fill="#333333" p-id="2753"></path><path d="M735.431111 158.264889h-59.079111c0-17.066667-16.241778-29.582222-33.109333-29.582222H145.408a30.663111 30.663111 0 0 0-30.435556 30.976V774.542222s32.398222 92.899556 85.617778 92.899556h434.744889a175.815111 175.815111 0 0 1-82.716444-75.320889H205.880889s-31.374222-10.581333-31.374222-31.857778l363.491555-0.227555 1.28 2.616888a175.985778 175.985778 0 0 1-9.756444-56.917333c0-46.819556 18.545778-91.676444 51.683555-124.785778a176.497778 176.497778 0 0 1 95.488-48.981333l-2.474666 0.227556 1.649777-328.248889H705.422222l0.455111 325.404444c20.906667 0 40.704 3.726222 59.249778 10.325333V192.568889s-4.892444-34.304-29.667555-34.304zM230.712889 511.601778H170.951111v-59.818667H230.684444v59.818667z m0-111.530667H170.951111v-59.847111H230.684444v59.847111z m0-106.097778H170.951111V234.154667H230.684444v59.875555z m387.896889 217.628445H274.204444v-59.818667h344.376889v59.818667z m0-111.530667H274.204444v-59.847111h344.376889v59.847111z m0-106.097778H274.204444V234.154667h344.376889v59.875555z" fill="#333333" p-id="2754"></path></svg>